<svg xmlns="http://www.w3.org/2000/svg" width="252" height="10" viewBox="0 0 252 10">
  <defs>
    <style>
      .cls-1 {
        fill: #fff;
        fill-rule: evenodd;
        opacity: 0.6;
      }
    </style>
  </defs>
  <path id="_171.svg" data-name="171.svg" class="cls-1" d="M815,289v-2H915v2H815Zm-15.393,1.979-2.061,2.033-0.571-.563-0.024.024-5.165-5.093-5.711,5.632-2.087-2.058,0.211-.208-3.413-3.366-5.711,5.632-2.087-2.058,5.711-5.632-0.306-.3,2.061-2.033,5.806,5.725,3.439-3.391-0.306-.3,2.061-2.033,0.571,0.563,0.024-.024,5.165,5.092,5.711-5.631,2.087,2.058-5.711,5.631ZM663,287H763v2H663v-2Z" transform="translate(-663 -283)"/>
</svg>
