<svg xmlns="http://www.w3.org/2000/svg" width="1851" height="368" viewBox="0 0 1851 368">
  <defs>
    <style>
      .cls-1 {
        fill-rule: evenodd;
        opacity: 0.06;
      }
    </style>
  </defs>
  <path id="_78.svg" data-name="78.svg" class="cls-1" d="M1937.76,1176.45V1145.7H1630.53v30.75h-10.24v-41h20.49v-30.76c0-35.08,23.7-45.78,54.7-56.12l14.5-4.84,26.87-21.52,6.33,1.59V998.119c-13.85-13.613-19.94-34.309-20.44-50.173l-5.16-5.161V884.278a20.517,20.517,0,0,1,20.48-20.5h0.65a20.525,20.525,0,0,1,19.83-15.378h56.33a25.641,25.641,0,0,1,25.6,25.629v68.759l-5.15,5.161c-0.51,15.864-6.59,36.56-20.45,50.173V1023.8l6.34-1.59,26.86,21.52,14.5,4.84c31,10.34,54.71,21.04,54.71,56.12v30.76h10.24v-69.64l-45.94-45.99a20.595,20.595,0,1,1,7.24-7.25l48.94,48.99v73.89H1948v41h-10.24Zm-198.48-143.06-17.05,13.65,35.18,15.65,16.5-16.51v-4.12Zm39.75-.62,25.6-6.41v-20.43a53.755,53.755,0,0,1-51.21,0v20.43Zm51.2-158.744a15.386,15.386,0,0,0-15.36-15.377h-56.33A10.261,10.261,0,0,0,1748.3,868.9v5.125h-10.24a10.261,10.261,0,0,0-10.24,10.252v35.881a5.125,5.125,0,0,0,5.12-5.126V904.782A15.386,15.386,0,0,1,1748.3,889.4h39.76l26.81-13.421v14.3a15.4,15.4,0,0,1,10.24,14.5v10.251a5.131,5.131,0,0,0,5.12,5.126V874.026Zm-5.12,71.763v-2.123l5.12-5.126v-8.129a15.386,15.386,0,0,1-15.36-15.378V904.782a5.131,5.131,0,0,0-5.12-5.126h-5.12v-7.083l-14.16,7.083H1748.3a5.131,5.131,0,0,0-5.12,5.126v10.251a15.386,15.386,0,0,1-15.36,15.378v8.129l5.12,5.126v2.123c0,21.8,12.51,56.381,46.09,56.381S1825.11,967.588,1825.11,945.789Zm-6.34,87.6-34.62,8.67v4.12l16.49,16.51,35.18-15.65Zm88.27,71.3c0-26.08-14.72-35.39-47.71-46.4l-13.47-4.49-47.49,21.12-19.34-19.37-19.35,19.37-47.48-21.12-13.48,4.49c-32.99,11.01-47.7,20.32-47.7,46.4v30.76h40.96v-20.51h10.24v20.51h153.61v-20.51h10.24v20.51h40.97v-30.76Zm-35.85-112.769a10.25,10.25,0,1,0,10.24,10.249A10.26,10.26,0,0,0,1871.19,991.921Zm-97.28,123.019h10.24v10.25h-10.24v-10.25Zm0-20.5h10.24v10.25h-10.24v-10.25Zm0-20.5h10.24v10.25h-10.24v-10.25Zm-562.35,8.05h237.23V869.777H1199.7V857.988h260.95V1093.78H1211.56v-11.79Zm-59.31-182.739a35.369,35.369,0,1,1,35.59-35.37A35.514,35.514,0,0,1,1152.25,899.251Zm0-58.947a23.579,23.579,0,1,0,23.73,23.577A23.675,23.675,0,0,0,1152.25,840.3Zm142.34,70.736V958.2H1199.7v224h-11.86V946.407h94.89V922.829h-154.2a35.523,35.523,0,0,0-35.59,35.369v76.632h23.73V1182.2h-11.86V1046.62h-23.73V958.2a47.361,47.361,0,0,1,47.45-47.158h166.06ZM890.982,1190.9a55.905,55.905,0,1,1,55.847-55.91A55.941,55.941,0,0,1,890.982,1190.9Zm0-100.63a44.725,44.725,0,1,0,44.678,44.72A44.749,44.749,0,0,0,890.982,1090.27Zm0,78.27a33.545,33.545,0,1,1,33.508-33.55A33.566,33.566,0,0,1,890.982,1168.54Zm0-55.91a22.365,22.365,0,1,0,22.339,22.36A22.375,22.375,0,0,0,890.982,1112.63Zm-5.585-72.68H773.7v27.96H762.534v-27.96H650.84v27.96H639.671v-33.55a5.592,5.592,0,0,1,5.584-5.59H762.534v-27.95H773.7v27.95H890.982a5.592,5.592,0,0,1,5.585,5.59v33.55H885.4v-27.96Zm-16.754-50.313H667.594a27.971,27.971,0,0,1-27.923-27.953V861.052A27.971,27.971,0,0,1,667.594,833.1H868.643a27.972,27.972,0,0,1,27.924,27.953V961.684A27.972,27.972,0,0,1,868.643,989.637ZM885.4,861.052a16.781,16.781,0,0,0-16.754-16.771H667.594a16.781,16.781,0,0,0-16.754,16.771V961.684a16.781,16.781,0,0,0,16.754,16.772H868.643A16.781,16.781,0,0,0,885.4,961.684V861.052ZM868.643,967.275H667.594a5.589,5.589,0,0,1-5.585-5.591V861.052a5.588,5.588,0,0,1,5.585-5.59H868.643a5.588,5.588,0,0,1,5.585,5.59V961.684A5.589,5.589,0,0,1,868.643,967.275Zm-5.584-100.632H673.179v89.45h189.88v-89.45ZM751.365,916.959H740.2V905.778h11.17v11.181Zm22.338,0H762.534V905.778H773.7v11.181Zm22.339,0H784.873V905.778h11.169v11.181ZM701.1,1134.99a55.847,55.847,0,1,1-55.847-55.9A55.941,55.941,0,0,1,701.1,1134.99Zm-100.524,0a44.678,44.678,0,1,0,44.677-44.72A44.757,44.757,0,0,0,600.578,1134.99Zm78.186,0a33.509,33.509,0,1,1-33.509-33.54A33.567,33.567,0,0,1,678.764,1134.99Zm-55.847,0a22.339,22.339,0,1,0,22.338-22.36A22.376,22.376,0,0,0,622.917,1134.99Zm-215.7-48.24A40.281,40.281,0,0,1,367,1127H349.77v46H338.28v-46H326.791v-11.5H367a28.772,28.772,0,0,0,28.724-28.75v-11.5H370.37L357.2,1062.07l8.123-8.14,9.807,9.82h20.6v-34.5H430.2v-4.64l-34.468-86.254V885.5h5.744a23,23,0,0,0,0-46H223.385V828H401.472a34.5,34.5,0,0,1,5.745,68.512v39.632l34.469,86.246v18.36H407.217v46ZM280.832,943A68.937,68.937,0,1,1,211.9,874,69.045,69.045,0,0,1,280.832,943ZM211.9,885.5A57.5,57.5,0,1,0,269.343,943,57.539,57.539,0,0,0,211.9,885.5Zm-7.428,84.565a5.737,5.737,0,0,1-8.123,0l-22.979-23,8.123-8.13,18.918,18.934,41.9-41.934,8.123,8.13ZM384.238,966H361.259V954.5h22.979V966ZM108.489,943c0,38.568,21.358,74.95,54.419,92.68l3.029,1.63v55.19h22.979v-51.75h11.49v51.75h22.979v-51.75h11.489v51.75h22.979v-55.18l3.019-1.63C293.938,1017.86,315.3,981.478,315.3,943c0-23.351-10.917-49.235-11.029-49.493L300.86,885.5h83.378V897H317.876c3.546,10.155,8.915,28.432,8.915,46,0,41.468-22.441,80.77-57.448,101.12v48.38h11.489V1104H269.343v11.5h11.489V1127H269.343v11.5h11.489V1150H269.343v11.5h11.489V1173H234.874v23H188.916v-23H142.958v-11.5h11.49V1150h-11.49v-11.5h11.49V1127h-11.49v-11.5h11.49V1104h-11.49v-11.5h11.49v-48.37C119.441,1023.87,97,984.564,97,943c0-63.41,51.54-115,114.9-115v11.5A103.572,103.572,0,0,0,108.489,943Zm91.917,241.5h22.979V1173H200.406v11.5Zm-34.469-23h91.916V1150H165.937v11.5Zm0-23h91.916V1127H165.937v11.5Zm0-23h91.916V1104H165.937v11.5Zm602.182,75.4a55.905,55.905,0,1,1,55.847-55.91A55.941,55.941,0,0,1,768.119,1190.9Zm0-100.63a44.725,44.725,0,1,0,44.677,44.72A44.749,44.749,0,0,0,768.119,1090.27Zm0,78.27a33.545,33.545,0,1,1,33.508-33.55A33.567,33.567,0,0,1,768.119,1168.54Zm0-55.91a22.365,22.365,0,1,0,22.339,22.36A22.374,22.374,0,0,0,768.119,1112.63Zm390.061,69.57h-11.86V1058.41h11.86V1182.2Zm-11.86-247.581h11.86v11.788h-11.86V934.619Zm11.86,35.368h-11.86V958.2h11.86v11.789Zm53.38,76.633v-35.37h35.58v35.37h-11.86v-23.58h-11.86v23.58h-11.86Zm47.45,0V993.566h35.58v53.054h-11.86v-41.27h-11.86v41.27h-11.86Zm47.44,0V969.987h35.59v76.633h-11.86V981.777h-11.87v64.843h-11.86Zm47.45,0v-112h35.58v112h-11.86V946.407h-11.86V1046.62H1353.9Zm83.03,23.58H1211.56v-11.79h225.37v11.79Zm-35.58-23.58V905.144h35.58V1046.62h-11.86V916.935h-11.86V1046.62h-11.86Z" transform="translate(-97 -828)"/>
</svg>
