<svg xmlns="http://www.w3.org/2000/svg" width="1843" height="380" viewBox="0 0 1843 380">
  <defs>
    <style>
      .cls-1 {
        fill: #fff;
        fill-rule: evenodd;
        opacity: 0.1;
      }
    </style>
  </defs>
  <path id="_82.svg" data-name="82.svg" class="cls-1" d="M1764.86,2141.49l85.81,37-4.83,11.33-83.4-35.95-83.39,35.95a5.929,5.929,0,0,1-2.42.5h-30.64v30.84c0,106.33,59.58,158.27,95.1,179.78l-6.32,10.56c-37.73-22.84-101.04-77.95-101.04-190.34v-37a6.146,6.146,0,0,1,6.13-6.17h35.52l84.65-36.5A6.139,6.139,0,0,1,1764.86,2141.49ZM680.938,2264.35v11.88H668.961v-11.88h11.977ZM698.9,2199H710.88v11.88H698.9V2199Zm11.977,142.58H698.9V2329.7H710.88v11.88Zm65.872,29.7H764.775V2359.4h11.977v11.88ZM764.775,2169.3h11.977v11.88H764.775V2169.3Zm11.977,103.45-37.685,37.38-8.468-8.4,34.176-33.9v-62.89h11.977v67.81Zm-5.989-127.21c36.567,0,70.088,15.5,94.375,43.66l-9.1,7.72c-21.977-25.48-52.263-39.5-85.275-39.5-62.737,0-113.778,50.63-113.778,112.87s51.041,112.87,113.778,112.87h5.989v11.88h-5.989c-69.339,0-125.755-55.96-125.755-124.75S701.424,2145.54,770.763,2145.54Zm-520.384,83.77a33.655,33.655,0,1,1,33.69-33.65A33.7,33.7,0,0,1,250.379,2229.31Zm0-56.09a22.435,22.435,0,1,0,22.46,22.44A22.472,22.472,0,0,0,250.379,2173.22Zm67.379,314.12H441.287v11.22H317.758v-11.22Zm123.529-129.01a22.46,22.46,0,1,1-22.46-22.44A22.477,22.477,0,0,1,441.287,2358.33Zm-33.689,0a11.23,11.23,0,1,0,11.229-11.22A11.241,11.241,0,0,0,407.6,2358.33Zm9.584-161.03,26.43,26.4-26.43,26.41-7.939-7.94,12.874-12.86h-81.9v-11.22h81.9l-12.874-12.86Zm-189.263,43.23h44.92a44.949,44.949,0,0,1,44.919,44.88v95.36H295.3v129.01H463.747V2173.22H295.3V2162H474.977v359H284.069V2369.55h22.46v-84.14a33.712,33.712,0,0,0-33.69-33.66h-44.92a33.712,33.712,0,0,0-33.689,33.66v84.14h22.46V2521H205.46V2380.77H183v-95.36A44.949,44.949,0,0,1,227.919,2240.53Zm28.075,33.66h-11.23v-11.22h11.23v11.22Zm0,22.43h-11.23v-11.21h11.23v11.21Zm0,224.38h-11.23V2391.98h11.23V2521Zm568.664-322h11.977v11.88H824.658V2199Zm-17.053,193.14c10.054-3.79,20.441-7.75,30.869-13.52l13.29-19.77,2.835,0.47v-14.99c-5.693-5.24-18.9-20.74-23.894-55.38l-0.059-.84v-23.76c0-39.42,20.147-59.41,59.883-59.41s59.884,19.99,59.884,59.41l-0.059,24.6c-4.991,34.64-18.2,50.14-23.9,55.38v14.99l2.837-.47,13.288,19.77c10.429,5.77,20.816,9.73,30.87,13.52,28.186,10.62,54.806,20.67,54.806,68.25v41.59h-11.98v-41.59c0-39.39-18.727-46.45-47.084-57.14a260.651,260.651,0,0,1-29.646-12.79l-23.886,23.69-25.135-12.46L865.4,2414.15l-23.886-23.69a260.651,260.651,0,0,1-29.646,12.79c-28.358,10.69-47.088,17.75-47.088,57.14v41.59H752.8v-41.59C752.8,2412.81,779.418,2402.76,807.605,2392.14Zm82.924-175.32c-29.551,0-44.418,11.77-47.3,37.61l17.086-8.47,59.883,23.76,18.023-8.94C937.111,2230.55,922.372,2216.82,890.529,2216.82Zm47.907,70.87v-13.73l-17.69,8.78-59.883-23.76-18.24,9.04v19.67c5.157,35.15,19.163,47.29,21.07,48.78,10.491,4.99,26.486,5.11,26.836,5.11s16.339-.12,26.825-5.1C919.225,2334.99,933.284,2322.79,938.436,2287.69Zm-71.86,62.41v11.2l23.953,3.96,23.953-3.96v-11.2A87.059,87.059,0,0,1,866.576,2350.1Zm1.181,49.6,22.772-11.3,22.772,11.3,17.427-17.29-7.1-10.58-33.094,5.47-33.094-5.47-7.1,10.58Zm-55.076,102.28H800.705v-35.65h11.976v35.65Zm83.837-71.29H884.541v-11.88h11.977v11.88Zm0,23.76H884.541v-11.88h11.977v11.88Zm83.836,47.53H968.378v-35.65h11.976v35.65Zm364.876-329.75c91.4,0,165.77,74.32,165.77,165.67s-74.37,165.66-165.77,165.66-165.77-74.32-165.77-165.66S1253.83,2172.23,1345.23,2172.23Zm0,320.97a154.984,154.984,0,0,0,111.57-47.31c-3.94-3.39-12.61-9.18-30.32-15.08l-13.64-4.54-48.04,21.34-19.57-19.56-19.57,19.56-48.04-21.34-13.64,4.54c-17.65,5.89-26.32,11.66-30.31,15.09A155.01,155.01,0,0,0,1345.23,2493.2Zm51.8-183.33v-8.21a15.554,15.554,0,0,1-15.54-15.53v-10.36a5.187,5.187,0,0,0-5.18-5.18h-5.18v-7.15l-14.32,7.15h-42.66a5.187,5.187,0,0,0-5.18,5.18v10.36a15.554,15.554,0,0,1-15.54,15.53v8.21l5.18,5.17v2.15c0,22.01,12.65,56.94,46.62,56.94s46.62-34.93,46.62-56.94v-2.15Zm-93.24-65.16a10.373,10.373,0,0,0-10.36,10.35v36.24a5.179,5.179,0,0,0,5.18-5.17v-10.36a15.554,15.554,0,0,1,15.54-15.53h40.22l27.12-13.55v14.44a15.546,15.546,0,0,1,10.36,14.64v10.36a5.179,5.179,0,0,0,5.18,5.17v-46.59a15.554,15.554,0,0,0-15.54-15.53h-56.98a10.373,10.373,0,0,0-10.36,10.35v5.18h-10.36Zm67.34,133.22a54.409,54.409,0,0,1-51.8,0v20.64l25.9,6.46,25.9-6.46v-20.64Zm-66.11,27.73-17.25,13.79,35.59,15.81,16.69-16.68v-4.16Zm45.39,8.76v4.16l16.69,16.68,35.59-15.81-17.25-13.79Zm-123.73,23.77c5.19-4.54,15.16-10.92,34.03-17.2l14.66-4.88,27.18-21.73,6.42,1.6v-25.94c-14.02-13.75-20.18-34.65-20.69-50.67l-5.21-5.22v-59.09a20.726,20.726,0,0,1,20.72-20.7h0.65a20.752,20.752,0,0,1,20.07-15.53h56.98a25.92,25.92,0,0,1,25.9,25.88v69.44l-5.21,5.22c-0.52,16.02-6.67,36.92-20.69,50.67v25.94l6.42-1.6,27.18,21.73,14.66,4.88c18.87,6.28,28.84,12.66,34.03,17.2a154.514,154.514,0,0,0,36.86-100.29c0-85.64-69.72-155.31-155.41-155.31s-155.41,69.67-155.41,155.31A154.514,154.514,0,0,0,1226.68,2438.19Zm123.73,18.77h-10.36v-10.35h10.36v10.35Zm0,20.71h-10.36v-10.35h10.36v10.35Zm469.21-142.36c-24.65,30.35-53.23,44.93-54.44,45.54l-2.74,1.38-2.74-1.38c-0.89-.45-89.2-46.05-89.2-147.36v-18.5h23.19l68.75-31.44,57.69,26.39-5.07,11.23-52.62-24.07-66.09,30.23h-13.59v6.16c0,83.75,65.41,126.48,79.7,134.81a179.575,179.575,0,0,0,47.67-40.8Zm-51.05-46.32h-12.26v-12.33h12.26v12.33Zm-12.26-61.66h12.26v12.33h-12.26v-12.33Zm12.26,37h-12.26v-12.34h12.26v12.34Zm31.58,132.66c10.29-3.94,20.93-8.05,31.6-14.04l13.6-20.53,2.9,0.49v-15.56c-5.83-5.43-19.35-21.53-24.45-57.48l-0.07-.88v-24.66c0-40.92,20.63-61.67,61.3-61.67s61.29,20.75,61.29,61.67l-0.06,25.54c-5.11,35.95-18.63,52.05-24.46,57.48v15.56l2.91-.49,13.59,20.53c10.68,5.99,21.31,10.1,31.6,14.04,28.85,11.02,56.1,21.45,56.1,70.84V2511h-12.26v-43.17c0-40.89-19.17-48.22-48.19-59.32a263.647,263.647,0,0,1-30.35-13.27l-24.45,24.6-25.72-12.95-25.73,12.95-24.44-24.6a264.4,264.4,0,0,1-30.35,13.27c-29.02,11.1-48.2,18.43-48.2,59.32V2511h-12.26v-43.17C1744.05,2418.44,1771.3,2408.01,1800.15,2396.99Zm84.88-182c-30.25,0-45.47,12.22-48.42,39.05l17.49-8.8,61.29,24.66,18.45-9.27C1932.7,2229.24,1917.62,2214.99,1885.03,2214.99Zm49.03,73.57v-14.25l-18.11,9.11-61.29-24.67-18.67,9.39v20.42c5.28,36.48,19.62,49.08,21.57,50.64,10.74,5.18,27.11,5.3,27.47,5.3s16.72-.12,27.45-5.3C1914.4,2337.66,1928.79,2324.99,1934.06,2288.56Zm-73.55,64.79v11.62l24.52,4.11,24.51-4.11v-11.62A88.088,88.088,0,0,1,1860.51,2353.35Zm1.21,51.48,23.31-11.73,23.31,11.73,17.84-17.95-7.28-10.98-33.87,5.68-33.88-5.68-7.27,10.98ZM1805.35,2511h-12.26v-37h12.26v37Zm85.81-74H1878.9v-12.33h12.26V2437Zm0,24.67H1878.9v-12.34h12.26v12.34Zm85.81,49.33h-12.26v-37h12.26v37Z" transform="translate(-183 -2141)"/>
</svg>
