<svg xmlns="http://www.w3.org/2000/svg" width="1227" height="460" viewBox="0 0 1227 460">
  <defs>
    <style>
      .cls-1 {
        fill: #fff;
        fill-rule: evenodd;
        opacity: 0.22;
      }
    </style>
  </defs>
  <path id="_91.svg" data-name="91.svg" class="cls-1" d="M1780,3855.27l-8.76,38.81-7.99-2.29,5.18-22.93-95.02,56.29,0.1,0.18-240.54,142.49c0.01,0.24.02,0.47,0.02,0.71a13.139,13.139,0,0,1-25.9,3.12l-152.38-37.79a20.78,20.78,0,0,1-35.25,7.23l-215.67,127.76a13.385,13.385,0,0,1,.2,2.3,13.136,13.136,0,0,1-26.082,2.22l-127.635-31.66a18.946,18.946,0,0,1-32.076,4.44L583.18,4285.37a15.281,15.281,0,1,1-4.82-8.11l235.88-139.73a18.942,18.942,0,1,1,37.468-5.46l128.21,31.8a13.145,13.145,0,0,1,18.994-3.09L1214.95,4032.8a21.22,21.22,0,0,1-.74-5.5,20.782,20.782,0,0,1,41.31-3.23L1408.46,4062a13.131,13.131,0,0,1,20.6-2.83l88.62-52.49-0.11-.18,248.4-147.15-25.89-7.43,1.79-7.92,37.38,10.74-0.07.3Z" transform="translate(-553 -3844)"/>
</svg>
