<svg xmlns="http://www.w3.org/2000/svg" width="794" height="153" viewBox="0 0 794 153">
  <defs>
    <style>
      .cls-1 {
        fill: #fff;
        fill-rule: evenodd;
        opacity: 0.2;
      }
    </style>
  </defs>
  <path id="_92.svg" data-name="92.svg" class="cls-1" d="M1668.99,4166.93l-14.22,27.39-5.58-3.29,9.34-17.99-183.99,49.89c0.01,0.25.02,0.49,0.02,0.74a13.477,13.477,0,0,1-26.85,1.64l-54.16-1.49v0.12l-189.82-5.21a13.485,13.485,0,0,1-24.02,6.61l-136.47,68.93a9.455,9.455,0,0,1,.07,1.07,8.686,8.686,0,0,1-17.3,1.09l-131.729-32.44a10.445,10.445,0,1,1,1.683-5.68c0,0.29-.015.57-0.038,0.85l130.954,32.26a8.695,8.695,0,0,1,14.27-1.79l136.25-68.81a13.477,13.477,0,1,1,25.98-7.18l55.7,1.53,0.01-.12,188.97,5.18a13.49,13.49,0,0,1,25.24-2.23l185.22-50.22-19.01-11.2,2.9-5.58,26.12,15.38-0.11.21Zm-8.38,2.08v0.03l0.01-.02Z" transform="translate(-875 -4151)"/>
</svg>
